<mxfile host="app.diagrams.net" modified="2025-02-25T11:18:00.612Z" agent="Mozilla/5.0 (Windows NT 10.0; Win64; x64) AppleWebKit/537.36 (KHTML, like Gecko) Chrome/133.0.0.0 Safari/537.36" version="21.3.2" etag="HlG9VeYvsAeU98X7m17w" type="github">
  <diagram name="PÃ¡gina-1" id="ncFZOx4G1eFCB6elq_Ja">
    <mxGraphModel>
      <root>
        <mxCell id="0" />
        <mxCell id="1" parent="0" />
      </root>
    </mxGraphModel>
  </diagram>
</mxfile>
